<?xml version="1.0" encoding="UTF-8" standalone="no"?>
<svg
   viewBox="0 0 465 441"
   fill="none"
   version="1.1"
   id="svg112"
   sodipodi:docname="hero-img.svg"
   width="465"
   height="441"
   inkscape:version="1.3.2 (091e20ef0f, 2023-11-25)"
   xmlns:inkscape="http://www.inkscape.org/namespaces/inkscape"
   xmlns:sodipodi="http://sodipodi.sourceforge.net/DTD/sodipodi-0.dtd"
   xmlns="http://www.w3.org/2000/svg"
   xmlns:svg="http://www.w3.org/2000/svg">
  <defs
     id="defs112" />
  <sodipodi:namedview
     id="namedview112"
     pagecolor="#ffffff"
     bordercolor="#000000"
     borderopacity="0.25"
     inkscape:showpageshadow="2"
     inkscape:pageopacity="0.0"
     inkscape:pagecheckerboard="0"
     inkscape:deskcolor="#d1d1d1"
     inkscape:zoom="1.745614"
     inkscape:cx="232.58291"
     inkscape:cy="228"
     inkscape:window-width="2560"
     inkscape:window-height="1008"
     inkscape:window-x="0"
     inkscape:window-y="35"
     inkscape:window-maximized="1"
     inkscape:current-layer="svg112" />
  <path
     d="m 145.716,186.722 c 16.813,-31.731 -16.62,-61.877 -44.082,-67.954 -40.1565,-8.67 -75.9656,23.823 -89.2864,60.701 -58.6907,162.589 182.5754,243.827 293.7224,212.715 33.234,-9.286 49.833,-25.305 71.983,-51.002 16.887,-19.487 31.734,-40.972 47.741,-61.143 23.315,-28.674 38.503,-67.074 35.69,-106.245 C 458.671,134.623 439.877,99.4278 419.139,67.2965 391.925,25.2628 357.402,5.75838 309.596,3.46548 280.711,2.09722 250.993,4.81773 231.495,29.5309 c -18.138,22.9441 -8.667,52.9307 -0.572,78.2271 9.19,29.357 22.052,58.705 26.433,89.216 3.744,26.358 1.708,53.041 -23.984,63.854 -20.479,8.748 -48.361,11.343 -68.583,-0.731 -13.853,-8.486 -21.735,-26.068 -23.639,-42.525 -0.918,-7.1 -0.988,-14.275 -0.208,-21.357 1.264,-6.976 6.628,-12.366 6.791,-19.209"
     fill="#3fbdf1"
     fill-opacity="0.27"
     id="path1" />
  <mask
     id="mask0_1_1970"
     maskUnits="userSpaceOnUse"
     x="2"
     y="3"
     width="461"
     height="396">
    <path
       d="M 145.52,186.695 C 162.38,155.069 128.878,124.986 101.354,118.905 61.108,110.229 25.2084,142.6 11.8477,179.36 -47.019,341.43 194.78,422.617 306.19,391.682 c 33.313,-9.233 49.954,-25.193 72.162,-50.798 16.93,-19.417 31.816,-40.828 47.866,-60.928 23.376,-28.572 38.608,-66.848 35.799,-105.907 C 459.207,134.99 440.379,99.8829 419.602,67.8293 392.336,25.8971 357.738,6.42289 309.823,4.0997 c -28.951,-1.38662 -58.738,1.30296 -78.287,25.929 -18.185,22.8632 -8.7,52.7696 -0.593,77.9983 9.203,29.279 22.087,58.551 26.471,88.976 3.746,26.285 1.699,52.888 -24.055,63.65 -20.528,8.706 -48.476,11.272 -68.741,-0.782 -13.882,-8.472 -21.778,-26.009 -23.682,-42.42 -0.919,-7.08 -0.987,-14.234 -0.203,-21.294 1.269,-6.955 6.646,-12.325 6.812,-19.148"
       fill="#514f43"
       id="path2" />
  </mask>
  <g
     mask="url(#mask0_1_1970)"
     id="g9">
    <path
       d="M 19.6128,563.883 C 53.986,548.814 88.075,533.094 121.947,517.035 c 33.872,-16.059 67.868,-32.542 101.693,-49.004 33.826,-16.462 68.014,-33.076 102.162,-49.266 33.02,-15.644 66.431,-30.523 99.342,-46.369 31.759,-15.279 63.056,-31.995 92.375,-51.932 3.617,-2.439 7.321,-4.833 10.743,-7.566 l -3.1,-4.174 c -4.215,3.232 -8.834,5.855 -13.737,7.799 -1.855,0.805 -0.498,4.087 1.401,3.438 5.417,-1.675 10.602,-4.048 15.436,-7.063 2.681,-1.802 0.156,-6.372 -2.589,-4.503 -7.342,4.766 -14.38,10.05 -21.744,14.815 -7.364,4.766 -14.901,9.396 -22.525,13.823 -15.311,8.944 -30.971,17.256 -46.869,25.209 -32.436,16.255 -65.592,30.958 -98.333,46.516 -34.106,16.212 -68.209,32.738 -102.033,49.446 -33.823,16.708 -67.541,33.194 -101.431,49.521 -33.8911,16.327 -67.5931,32.231 -101.921,47.569 -4.2642,1.918 -8.5286,3.82 -12.7931,5.708 -1.8764,0.828 -0.2234,3.687 1.6318,2.882 z"
       fill="#514f43"
       id="path3" />
    <path
       d="m 55.8066,472.135 c 33.9831,-21.03 68.2414,-41.572 102.7764,-61.626 34.534,-20.055 69.404,-39.396 104.608,-58.026 17.517,-9.218 35.143,-18.22 52.878,-27.003 18.034,-8.937 36.243,-17.469 54.015,-26.878 34.905,-18.581 68.59,-39.458 102.645,-59.615 10.925,-6.582 22.595,-11.209 33.936,-16.802 10.829,-5.353 22.957,-11.429 30.489,-21.475 1.437,-1.915 2.587,-4.051 3.411,-6.336 0.397,-1.046 -0.767,-1.91 -1.664,-1.72 -6.049,1.226 -12.26,1.041 -18.354,2.02 -0.919,0.168 -0.69,1.826 0.23,1.725 6.267,-0.686 12.61,-0.163 18.854,-1.074 l -1.517,-2.076 c -4.781,11.13 -16.798,17.699 -26.707,22.996 -11.038,5.843 -22.732,10.335 -33.726,16.29 -7.714,4.16 -15.143,8.926 -22.661,13.446 -8.518,5.09 -16.966,10.165 -25.342,15.226 -16.91,10.114 -33.885,20.114 -51.121,29.597 -34.665,19.076 -70.703,35.406 -105.717,53.807 -35.013,18.4 -69.228,37.459 -103.265,57.28 -34.037,19.821 -67.958,40.606 -101.5345,61.641 -4.2587,2.612 -8.517,5.269 -12.6042,7.905 -0.0848,0.05 -0.1466,0.133 -0.1718,0.231 -0.0252,0.098 -0.0118,0.204 0.0373,0.293 0.0491,0.09 0.1298,0.156 0.2244,0.185 0.0946,0.028 0.1954,0.016 0.2802,-0.033 z"
       fill="#514f43"
       id="path4" />
    <path
       d="m -16.3663,320.725 c 30.8379,-21.198 62.3641,-41.269 94.5785,-60.214 32.2148,-18.944 64.8148,-36.997 97.8028,-54.158 33.093,-17.257 66.601,-33.658 100.349,-49.475 33.749,-15.818 68.711,-30.01 102.892,-45.442 16.759,-7.585 32.997,-16.0943 49.407,-24.3998 14.066,-7.1255 29.2,-12.1356 42.503,-20.8582 3.149,-2.0408 6.142,-4.3308 8.951,-6.8505 2.442,-2.208 -0.215,-7.1157 -3.308,-5.8774 -7.893,3.1723 -15.743,6.3673 -23.789,9.1127 -8.047,2.7455 -16.182,5.2439 -24.272,7.8993 -0.418,0.1662 -0.759,0.4897 -0.957,0.9079 -0.197,0.4182 -0.238,0.9015 -0.114,1.3564 0.124,0.4549 0.404,0.8491 0.786,1.1065 0.382,0.2574 0.838,0.3597 1.282,0.2871 16.68,-3.1646 33.04,-7.8201 48.903,-13.9153 l -3.308,-5.8773 c -11.744,10.5305 -27.024,16.0535 -41.075,22.4409 -7.591,3.4443 -14.919,7.4732 -22.228,11.3234 -8.14,4.2431 -16.389,8.2835 -24.704,12.1893 -33.812,15.861 -68.521,29.654 -102.355,45.514 -33.834,15.861 -67.235,32.264 -100.307,49.544 -33.071,17.279 -65.325,35.015 -97.2457,54.12 -31.9204,19.104 -63.3196,39.021 -94.04458,60.085 -3.85112,2.661 -7.72332,5.344 -11.55282,8.028 -1.8297,1.276 -0.0878,4.473 1.7843,3.153 z"
       fill="#514f43"
       id="path5" />
    <path
       d="M -30.6298,230.928 C 2.56026,212.464 34.5066,191.435 68.7217,175.041 103.512,158.297 139.439,144.138 175.17,129.685 c 17.748,-7.193 35.475,-14.455 53.026,-22.098 17.061,-7.471 34.118,-15.3664 51.177,-22.9487 33.501,-14.8588 67.152,-29.7608 98.449,-49.1644 12.392,-7.6824 24.737,-15.7233 36.65,-24.1719 11.339,-8.00805 22.99,-17.01894 30.523,-29.1657 1.607,-2.6121 2.924,-5.4102 3.928,-8.342 0.154,-0.6385 0.063,-1.3197 -0.254,-1.8994 -0.317,-0.5798 -0.835,-1.0128 -1.444,-1.2077 -11.717,-5.2615 -23.506,5.0231 -32.918,10.6605 -1.491,0.877 -0.165,3.1296 1.349,2.387 4.966,-2.4242 9.758,-5.2531 14.92,-7.3841 4.629,-1.936 10.053,-3.4374 14.978,-1.0974 l -1.118,-2.8542 C 439.501,-14.6405 427.983,-5.02389 417.521,2.88272 406.378,11.2734 394.542,18.694 382.92,26.2961 352.356,46.2899 319.201,61.5555 286.043,76.3736 251.796,91.6263 217.809,107.285 183.061,121.525 c -34.749,14.24 -70.185,28.203 -104.2968,44.196 -34.1117,15.992 -66.0451,36.082 -98.7373,55.133 -4.0894,2.368 -8.1788,4.735 -12.3113,7.057 -1.8532,1.052 -0.156,4.047 1.7186,2.996 z"
       fill="#514f43"
       id="path6" />
    <path
       d="m 62.6668,370.034 c 61.4182,-34.193 122.3152,-69.31 183.6252,-103.728 30.143,-16.913 60.722,-33.038 90.778,-50.153 30.056,-17.116 59.035,-34.96 89.293,-51.044 6.763,-3.824 13.73,-7.251 20.869,-10.267 6.209,-2.432 12.527,-4.55 18.78,-6.892 10.669,-3.989 23.969,-8.351 30.944,-18.335 0.993,-1.42 -0.742,-3.901 -2.363,-3.205 -5.765,2.179 -11.366,4.789 -16.759,7.81 -0.299,0.229 -0.504,0.567 -0.577,0.95 -0.072,0.382 -0.006,0.782 0.185,1.122 0.192,0.341 0.496,0.598 0.853,0.723 0.358,0.124 0.744,0.108 1.085,-0.047 5.303,-2.49 10.762,-4.615 16.343,-6.361 l -2.046,-3.648 c -6.795,8.622 -18.384,12.667 -28.157,16.332 -11.323,3.869 -22.412,8.414 -33.214,13.611 -30.092,15.616 -59.115,33.303 -88.486,50.404 -29.819,17.275 -60.29,33.469 -90.306,50.383 -30.015,16.915 -60.452,34.474 -90.548,51.969 -33.715,19.734 -67.4317,39.267 -101.409,58.417 -1.2141,0.701 -0.1043,2.661 1.11,1.982 z"
       fill="#514f43"
       id="path7" />
    <path
       d="m 127.651,217.31 c 39.327,-20.957 75.029,-49.828 117.477,-64.263 10.744,-3.971 22.065,-6.102 33.531,-6.312 0.483,-0.047 0.929,-0.28 1.252,-0.654 0.322,-0.374 0.498,-0.863 0.494,-1.371 -0.005,-0.509 -0.19,-1.002 -0.519,-1.383 -0.329,-0.382 -0.78,-0.626 -1.265,-0.685 -3.127,-0.26 -5.275,1.391 -7.982,2.656 -1.535,0.72 -0.419,3.305 1.161,2.832 2.148,-0.993 4.491,-1.47 6.859,-1.395 l -0.038,-4.093 c -21.407,-0.029 -41.967,8.448 -60.806,17.774 -21.311,10.548 -41.381,23.437 -61.561,36.034 -9.941,6.211 -19.903,12.421 -30.192,17.979 -1.747,0.941 -0.18,3.732 1.588,2.792 z"
       fill="#514f43"
       id="path8" />
    <path
       d="M -52.1416,141.719 C -19.4773,122.817 13.1863,103.856 45.8495,84.8351 78.2279,65.9002 110.468,46.725 142.571,27.3095 c 32.103,-19.41552 64.157,-39.4283 96.164,-60.0384 31.936,-20.4991 63.613,-41.1803 95.811,-61.0497 16.27,-10.0554 32.598,-19.9764 48.984,-29.7624 14.206,-8.514 29.171,-16.079 42.247,-26.351 3.194,-2.429 6.191,-5.125 8.964,-8.062 l -4.056,-3.293 c 0.272,-0.668 0.212,-0.198 -0.512,0.196 -0.725,0.394 -1.193,0.679 -1.789,1.053 -1.449,0.855 -2.854,1.733 -4.259,2.657 -1.405,0.923 -0.582,4.289 1.445,3.485 2.667,-1.042 8.058,-1.739 9.573,-4.63 0.296,-0.559 0.388,-1.214 0.258,-1.847 -0.129,-0.632 -0.47,-1.2 -0.962,-1.599 -0.492,-0.4 -1.101,-0.604 -1.716,-0.576 -0.616,0.029 -1.196,0.287 -1.636,0.729 -6.145,5.598 -12.699,10.69 -19.606,15.23 -6.92,4.394 -14.077,8.538 -21.171,12.683 -16.04,9.365 -31.841,19.157 -47.642,28.906 -32.263,19.8905 -64.113,40.4132 -95.811,61.1388 -31.698,20.7257 -63.382,40.69073 -95.453,60.405 C 119.332,36.2981 87.512,55.3887 55.4557,74.4094 23.3993,93.4302 -9.34195,112.51 -41.8275,131.436 l -12.206,7.106 c -0.3741,0.262 -0.636,0.665 -0.7332,1.127 -0.0971,0.463 -0.0223,0.95 0.2095,1.364 0.2318,0.414 0.6033,0.724 1.0398,0.868 0.4364,0.144 0.9053,0.11 1.3123,-0.093 z"
       fill="#514f43"
       id="path9" />
  </g>
  <path
     d="m 348.596,101.446 c 8.777,-4.8834 22.454,5.082 28.501,10.677 7.067,6.505 12.767,14.784 17.151,23.308 19.904,38.697 30.366,84.735 14.01,126.666 -5.509,14.195 -14.103,26.989 -25.161,37.455 -6.217,5.853 -19.013,11.374 -20.879,20.328 -0.4,2.223 -0.241,4.51 0.462,6.657 2.471,8.205 9.931,13.892 15.631,19.866 27.369,28.741 7.581,73.296 -21.682,92.497"
     stroke="#ccdde2"
     stroke-width="4.72"
     stroke-miterlimit="10"
     id="path10" />
  <path
     d="m 133.97,252.335 c 8.545,-9.078 19.465,-15.213 30.445,-20.859 11.89,-6.112 23.59,-12.266 34.399,-20.203 6.581,-4.822 12.806,-10.11 18.629,-15.824"
     stroke="#ccdde2"
     stroke-width="4.72"
     stroke-miterlimit="10"
     id="path11" />
  <path
     d="m 120.099,367.322 c -10.92,-28.214 -13.692,-60.554 -2.301,-88.736"
     stroke="#ccdde2"
     stroke-width="4.72"
     stroke-miterlimit="10"
     id="path12" />
  <path
     d="M 263.187,75.6571 V 45.4145 c 0,-2.083 -0.827,-4.0807 -2.3,-5.5536 -1.472,-1.4729 -3.47,-2.3004 -5.552,-2.3004 H 155.204 c -2.082,0 -4.08,0.8275 -5.552,2.3004 -1.473,1.4729 -2.3,3.4706 -2.3,5.5536 V 187.627 c 0.008,2.078 0.839,4.067 2.311,5.533 1.472,1.466 3.464,2.289 5.541,2.289 h 100.145 c 0.972,0.008 1.936,-0.178 2.836,-0.545"
     stroke="#000000"
     stroke-width="4.72"
     stroke-linecap="round"
     stroke-linejoin="round"
     id="path13" />
  <path
     d="m 252.157,42.3654 h -93.756 c -4.151,0 -7.516,3.3653 -7.516,7.5167 V 183.155 c 0,4.152 3.365,7.517 7.516,7.517 h 93.756 c 4.15,0 7.515,-3.365 7.515,-7.517 V 49.8821 c 0,-4.1514 -3.365,-7.5167 -7.515,-7.5167 z"
     fill="#3fbdf1"
     id="path14" />
  <path
     d="m 250.697,53.8414 h -89.649 c -2.077,0 -3.76,1.6837 -3.76,3.7607 v 20.2448 c 0,2.077 1.683,3.7607 3.76,3.7607 h 89.649 c 2.077,0 3.76,-1.6837 3.76,-3.7607 V 57.6021 c 0,-2.077 -1.683,-3.7607 -3.76,-3.7607 z"
     fill="#3fbdf1"
     id="path15" />
  <path
     d="m 205.276,65.5393 c 1.587,0 2.874,-1.2866 2.874,-2.8737 0,-1.587 -1.287,-2.8736 -2.874,-2.8736 -1.586,0 -2.873,1.2866 -2.873,2.8736 0,1.5871 1.287,2.8737 2.873,2.8737 z"
     fill="#d7e8f0"
     id="path16" />
  <path
     d="m 197.253,75.6571 c 0,-2.1283 0.845,-4.1695 2.35,-5.6744 1.505,-1.505 3.545,-2.3505 5.673,-2.3505 2.128,0 4.169,0.8455 5.674,2.3505 1.505,1.5049 2.35,3.5461 2.35,5.6744 z"
     fill="#d7e8f0"
     id="path17" />
  <path
     d="m 205.863,111.365 c -3.061,-0.002 -6.054,0.905 -8.6,2.605 -2.547,1.7 -4.531,4.117 -5.704,6.945 -1.172,2.828 -1.479,5.941 -0.882,8.944 0.596,3.003 2.07,5.762 4.235,7.927 2.165,2.165 4.923,3.639 7.925,4.236 3.003,0.597 6.115,0.29 8.943,-0.883 2.828,-1.172 5.245,-3.157 6.944,-5.704 1.7,-2.547 2.606,-5.54 2.604,-8.602 -0.001,-4.102 -1.631,-8.036 -4.531,-10.936 -2.9,-2.901 -6.833,-4.531 -10.934,-4.532 z m 0,27.203 c -0.599,0 -1.173,-0.238 -1.597,-0.662 -0.424,-0.424 -0.662,-0.998 -0.662,-1.598 0,-0.599 0.238,-1.173 0.662,-1.597 0.424,-0.424 0.998,-0.662 1.597,-0.662 0.599,0 1.174,0.238 1.597,0.662 0.424,0.424 0.662,0.998 0.662,1.597 0,0.6 -0.238,1.174 -0.662,1.598 -0.423,0.424 -0.998,0.662 -1.597,0.662 z m 2.864,-17.395 c -0.485,3.354 -0.896,6.889 -1.88,10.164 -0.24,0.777 -1.714,0.777 -1.954,0 -0.707,-2.453 -1.25,-4.95 -1.626,-7.475 -0.3,-1.848 -1.386,-4.805 -0.346,-6.597 0.896,-1.589 3.441,-1.788 4.91,-0.956 1.82,1.039 1.122,3.197 0.896,4.864 z"
     fill="#d7e8f0"
     id="path18" />
  <path
     d="m 205.863,138.568 c 1.248,0 2.259,-1.012 2.259,-2.259 0,-1.248 -1.011,-2.26 -2.259,-2.26 -1.247,0 -2.259,1.012 -2.259,2.26 0,1.247 1.012,2.259 2.259,2.259 z"
     fill="#ffffff"
     id="path19" />
  <path
     d="m 208.727,121.173 c -0.485,3.354 -0.896,6.889 -1.88,10.164 -0.24,0.777 -1.714,0.777 -1.954,0 -0.707,-2.453 -1.25,-4.95 -1.626,-7.475 -0.3,-1.848 -1.386,-4.805 -0.346,-6.597 0.896,-1.589 3.441,-1.788 4.91,-0.957 1.82,1.04 1.122,3.198 0.896,4.865 z"
     fill="#ffffff"
     id="path20" />
  <path
     d="m 167.006,94.0078 h 75.552"
     stroke="#ffffff"
     stroke-width="4.72"
     stroke-miterlimit="10"
     id="path21" />
  <path
     d="m 167.006,101.441 h 75.552"
     stroke="#ffffff"
     stroke-width="4.72"
     stroke-miterlimit="10"
     id="path22" />
  <path
     d="m 167.006,149.342 h 75.552"
     stroke="#ffffff"
     stroke-width="4.72"
     stroke-miterlimit="10"
     id="path23" />
  <path
     d="m 260.952,168.51 c 0.286,0.222 0.785,-93.1855 0.785,-93.1855 L 233.315,64.3381 c 0,0 -21.128,51.7949 -19.849,52.3169 l 5.705,2.31 c 0,0 1.409,-1.113 4.675,6.93 3.265,8.043 26.805,34.692 37.106,42.615 z"
     fill="#ffffff"
     id="path24" />
  <path
     d="M 184.555,156.378 H 225.01"
     stroke="#ffffff"
     stroke-width="4.72"
     stroke-miterlimit="10"
     id="path25" />
  <path
     d="m 374.681,210.538 c -0.37,4.029 -5.34,50.238 -0.522,59.261 1.746,3.266 -15.585,0.138 -16.629,-0.102 -15.705,-3.696 -30.413,-10.51 -44.178,-18.799 -13.765,-8.288 -25.928,-19.196 -40.28,-26.546 -2.651,-1.358 -8.522,-4.334 -6.785,-8.228 2.956,-6.635 6.587,-15.792 6.873,-23.89 l -0.088,-10.626 c 0,0 -2.097,-6.672 4.744,-0.827 6.841,5.844 38.146,21.252 58.41,3.4 20.264,-17.852 21.465,-31.97 21.465,-31.97 0,0 -12.975,-31.758 -49.915,-12.331 l 13.05,-33.726 c 0,0 -1.788,-2.269 3.866,-1.848 5.654,0.42 16.139,-2.375 17.437,-12.7376 0,0 0.102,-3.3818 6.084,3.0123 5.982,6.3943 34.251,31.3653 26.468,115.9573 z"
     fill="#2e2e2e"
     id="path26" />
  <path
     d="m 302.058,90.9077 c 3.169,-2.3248 6.719,-4.0804 10.49,-5.1882"
     stroke="#000000"
     stroke-width="4.72"
     stroke-miterlimit="10"
     id="path27" />
  <path
     d="m 288.015,248.588 -25.405,91.864 -23.096,83.539 -14.708,1.386 c -3.372,0.311 -6.506,1.87 -8.789,4.371 -2.283,2.502 -3.55,5.765 -3.553,9.152 h 45.485 l 32.944,-56.789 24.505,-42.25 38.312,-66.066 c 1.108,-1.926 2.185,-3.853 3.233,-5.821 0.017,-0.023 0.027,-0.05 0.028,-0.079"
     stroke="#000000"
     stroke-width="4.72"
     stroke-miterlimit="10"
     id="path28" />
  <path
     d="m 373.739,217.602 c 0.346,-2.245 0.651,-4.491 0.924,-6.75 0,-0.106 0,-0.198 0.027,-0.305 1.555,-13.681 1.886,-27.474 0.989,-41.215 0.006,-0.04 0.006,-0.08 0,-0.12 -1.016,-14.955 -3.76,-30.663 -9.239,-45.978 -1.59,-4.417 -3.558,-8.69 -5.88,-12.77 v 0 c -0.171,-0.337 -0.365,-0.67 -0.577,-1.002 -0.73,-1.275 -1.515,-2.518 -2.31,-3.747 -1.076,-1.622 -2.217,-3.197 -3.413,-4.699 -1.784,-2.2796 -3.763,-4.4005 -5.913,-6.3383 -0.014,-0.0048 -0.027,-0.0127 -0.037,-0.0231 -0.01,-0.0104 -0.018,-0.0231 -0.023,-0.037 -1.598,-1.4149 -3.296,-2.7119 -5.081,-3.8808 0,0 0,0 0,0 -0.333,-0.2264 -0.665,-0.4389 -1.003,-0.6514 -0.052,-0.0401 -0.108,-0.0757 -0.166,-0.1063"
     stroke="#000000"
     stroke-width="4.72"
     stroke-miterlimit="10"
     id="path29" />
  <path
     d="m 315.398,339.861 35.725,99.039 h -51.55 c -10e-4,-3.218 1.167,-6.326 3.286,-8.747 2.119,-2.421 5.045,-3.99 8.234,-4.415 l 11.22,-1.502 c 0,0 -15.086,-19.866 -31.411,-42.13"
     stroke="#000000"
     stroke-width="4.72"
     stroke-miterlimit="10"
     id="path30" />
  <path
     d="m 321.736,103.811 -15.484,39.991 c -0.467,1.207 -1.171,2.31 -2.068,3.242 -0.898,0.933 -1.972,1.678 -3.16,2.192 -1.188,0.514 -2.467,0.786 -3.761,0.801 -1.294,0.015 -2.579,-0.228 -3.778,-0.714 l -36.677,-14.849 c -0.018,-0.05 -0.033,-0.1 -0.046,-0.152 -0.462,-1.848 -5.201,-19.561 -10.947,-19.561 -4.412,0 -2.31,8.736 -0.462,13.68 0.212,0.531 0.411,1.03 0.591,1.455 l -0.287,-0.12 -28.717,-11.707 18.112,-47.7526 35.36,13.6613 z"
     fill="#d7e8f0"
     id="path31" />
  <path
     d="m 245.935,129.896 c -1.927,-4.412 -4.994,-15.135 -0.116,-15.135 5.746,0 10.481,17.727 10.948,19.561 l 0.046,0.152 36.672,14.854 c 1.201,0.485 2.487,0.727 3.783,0.711 1.296,-0.017 2.575,-0.291 3.764,-0.807 1.189,-0.516 2.263,-1.263 3.16,-2.199 0.897,-0.935 1.599,-2.04 2.065,-3.249 L 323.509,99.2007 268.67,77.9995 233.315,64.3381 213.452,116.655 Z"
     stroke="#000000"
     stroke-width="4.72"
     stroke-miterlimit="10"
     id="path32" />
  <path
     d="m 359.608,128.773 c 1.1,19.173 -3.182,43.701 -27.622,58.138 -36.155,21.382 -84.005,-27.059 -101.72,-50.566 -2.927,-3.86 -5.399,-8.046 -7.367,-12.474 -0.597,-1.288 -1.097,-2.619 -1.497,-3.982"
     stroke="#000000"
     stroke-width="4.72"
     stroke-miterlimit="10"
     id="path33" />
  <path
     d="m 272.754,177.468 c 0,0 2.771,20.194 -5.774,37.362 l 0.037,-0.046 c 0,0 0,0.032 -0.028,0.046 -13.118,24.611 -31.9,63.871 -21.424,92.4 3.562,9.702 9.701,21.252 17.04,33.227"
     stroke="#000000"
     stroke-width="4.72"
     stroke-miterlimit="10"
     id="path34" />
  <path
     d="m 336.365,60.4435 0.027,0.1293 c 0.223,2.7048 -0.638,5.3872 -2.393,7.4571 -1.755,2.0698 -4.261,3.3576 -6.965,3.5801 -1.731,0.1501 -3.471,-0.154 -5.049,-0.8824 -0.452,-0.1916 -0.886,-0.4219 -1.298,-0.6884 -0.169,-0.1175 -0.306,-0.274 -0.401,-0.4562 -0.096,-0.1822 -0.145,-0.3847 -0.145,-0.5902 0,-0.2056 0.049,-0.4081 0.145,-0.5903 0.095,-0.1822 0.232,-0.3387 0.401,-0.4562 1.986,-1.4322 3.802,-3.428 4.319,-5.7657 0.156,-0.719 0.168,-1.4615 0.037,-2.1853 -0.141,-0.9225 -0.522,-1.7918 -1.104,-2.5213 -0.582,-0.7296 -1.345,-1.2939 -2.213,-1.6367 -0.271,-0.0806 -0.552,-0.1257 -0.836,-0.134 -0.799,-0.0646 -1.847,0.037 -2.055,0.6284 1.02,-2.8669 1.062,-5.9909 0.12,-8.8843 -0.586,-1.7902 -1.573,-3.4227 -2.887,-4.7725 0.06,0.523 0.003,1.0527 -0.165,1.5514 -0.168,0.4987 -0.444,0.9542 -0.808,1.3341 -0.365,0.3798 -0.808,0.6746 -1.3,0.8634 -0.491,0.1888 -1.018,0.267 -1.543,0.229 -4.069,-0.1386 -4.836,-4.0194 -4.836,-4.0194 0,0 0,0.0462 0,0.0739 -1.774,4.4213 -6.929,4.5414 -10.624,2.5779 -1.31,-0.6725 -2.462,-1.6177 -3.377,-2.772 -1.048,-4.5322 2.689,-8.9119 6.998,-9.5403 0.093,-2.8828 2.195,-5.969 5.031,-6.2046 0.988,-0.0845 1.981,0.0977 2.874,0.5276 0.894,0.4298 1.656,1.0916 2.207,1.9164 0.078,0.1247 0.166,0.2587 0.235,0.3973 1.16,-1.6817 3.058,-3.5251 5.082,-3.696 1.403,-0.0986 2.803,0.2369 4.009,0.9608 1.206,0.724 2.161,1.8014 2.735,3.0863 0,-0.1987 1.778,-1.0118 1.958,-1.0857 1.661,-0.6316 3.485,-0.6924 5.184,-0.173 1.7,0.5194 3.178,1.5897 4.202,3.042 0.103,0.4015 0.171,0.8111 0.204,1.2243 0.101,1.2356 -0.089,2.4779 -0.555,3.6267 0.657,0.1872 1.27,0.5011 1.806,0.924 1.161,0.8497 1.94,2.1231 2.167,3.5436 0.023,0.1432 0.037,0.2864 0.046,0.4296 0.093,1.0825 -0.139,2.168 -0.665,3.1185 1.366,0.3903 2.607,1.1305 3.599,2.1474 0.992,1.0169 1.702,2.2753 2.059,3.6507 0.113,0.4552 0.189,0.9187 0.227,1.386 0.157,1.9795 -0.411,3.9487 -1.598,5.5401 -1.187,1.5914 -2.913,2.6964 -4.855,3.1086 z"
     fill="#3fbdf1"
     id="path35" />
  <path
     d="m 336.365,60.4434 0.027,0.1294 c 0.223,2.7048 -0.638,5.3872 -2.394,7.4571 -1.755,2.0698 -4.26,3.3576 -6.964,3.5801 -1.731,0.1501 -3.471,-0.154 -5.049,-0.8824 1.986,-1.4323 3.802,-3.4327 4.314,-5.7704 0.182,-0.8692 0.162,-1.7685 -0.058,-2.6287 -0.22,-0.8603 -0.635,-1.6585 -1.212,-2.3332 -0.141,-0.9225 -0.522,-1.7918 -1.104,-2.5213 -0.582,-0.7296 -1.345,-1.2939 -2.213,-1.6367 -0.271,-0.0807 -0.552,-0.1257 -0.836,-0.134 0.275,-2.8896 -0.405,-5.7894 -1.935,-8.2559 -0.586,-1.7902 -1.573,-3.4227 -2.887,-4.7725 0.06,0.523 0.004,1.0527 -0.165,1.5514 -0.168,0.4987 -0.444,0.9542 -0.808,1.334 -0.365,0.3799 -0.808,0.6747 -1.3,0.8635 -0.491,0.1888 -1.018,0.267 -1.542,0.2289 -4.07,-0.1386 -4.837,-4.0194 -4.837,-4.0194 0,0 0,0.0462 0,0.074 -1.774,4.4213 -6.929,4.5414 -10.624,2.5779 -1.31,-0.6725 -2.462,-1.6177 -3.377,-2.772 -1.048,-4.5322 2.689,-8.912 6.999,-9.5403 0.092,-2.8829 2.194,-5.969 5.03,-6.2046 0.988,-0.0845 1.981,0.0977 2.874,0.5275 0.894,0.4299 1.656,1.0917 2.207,1.9164 0.078,0.1248 0.166,0.2588 0.236,0.3974 1.159,-1.6817 3.057,-3.5251 5.081,-3.696 1.405,-0.1015 2.808,0.2325 4.017,0.9567 1.209,0.7241 2.166,1.8031 2.741,3.0904 0,-0.1987 1.778,-1.0118 1.958,-1.0857 1.661,-0.6316 3.485,-0.6925 5.184,-0.173 1.7,0.5194 3.178,1.5896 4.202,3.042 0.103,0.4015 0.171,0.8111 0.204,1.2243 0.101,1.2356 -0.089,2.4779 -0.555,3.6267 0.657,0.1872 1.27,0.5011 1.806,0.924 -0.084,0.6347 -0.251,1.2558 -0.494,1.848 1.025,0.3001 1.946,0.8791 2.661,1.6724 0.023,0.1433 0.037,0.2865 0.046,0.4297 0.092,1.0825 -0.139,2.168 -0.665,3.1185 0.687,0.1961 1.346,0.4819 1.958,0.8501 -0.099,0.6754 -0.318,1.3278 -0.646,1.9265 1.746,0.4914 3.277,1.5555 4.346,3.0215 0.113,0.4551 0.189,0.9186 0.227,1.386 0.163,1.9832 -0.402,3.9581 -1.59,5.5544 -1.188,1.5964 -2.917,2.7047 -4.863,3.1173 z"
     fill="#3fbdf1"
     id="path36" />
  <path
     d="m 300.469,51.1849 c 0,0 5.857,0.0832 7.201,5.0266"
     stroke="#000000"
     stroke-width="4.72"
     stroke-miterlimit="10"
     id="path37" />
  <path
     d="m 298.958,65.9966 c -1.332,0.3288 -2.716,0.3963 -4.074,0.1987 -0.255,-0.0438 -0.496,-0.1488 -0.702,-0.306 -0.206,-0.1572 -0.37,-0.362 -0.48,-0.5967 -0.109,-0.2348 -0.16,-0.4926 -0.148,-0.7514 0.012,-0.2587 0.086,-0.5107 0.217,-0.7344 1.219,-2.0652 2.476,-4.1072 3.843,-6.0707 0.214,-0.2498 0.347,-0.5595 0.379,-0.8871 0,0 -0.564,-6.1122 0.67,-10.8015"
     stroke="#000000"
     stroke-width="4.72"
     stroke-miterlimit="10"
     id="path38" />
  <path
     d="m 303.567,56.386 c 0.124,-0.9848 -0.455,-1.8686 -1.292,-1.974 -0.838,-0.1055 -1.618,0.6074 -1.742,1.5922 -0.124,0.9848 0.455,1.8686 1.293,1.974 0.838,0.1054 1.617,-0.6075 1.741,-1.5922 z"
     fill="#000000"
     id="path39" />
  <path
     d="m 331.242,70.3118 c 0.125,1.2243 5.617,9.702 10.583,19.0621 -0.003,0.0153 -0.003,0.0309 0,0.0462 0.092,0.1986 0.184,0.4112 0.291,0.6237"
     stroke="#000000"
     stroke-width="4.72"
     stroke-linecap="round"
     stroke-linejoin="round"
     id="path40" />
  <path
     d="m 311.43,79.2745 1.728,12.2985"
     stroke="#000000"
     stroke-width="4.72"
     stroke-miterlimit="10"
     id="path41" />
  <path
     d="m 296.843,66.3063 c 0,0 2.503,12.1783 8.661,14.0217 6.157,1.8433 11.502,-5.8397 11.502,-5.8397"
     stroke="#000000"
     stroke-width="4.72"
     stroke-linecap="round"
     stroke-linejoin="round"
     id="path42" />
  <path
     d="m 298.524,71.7994 c 0.818,0.4781 1.743,0.7445 2.689,0.7752 0.947,0.0306 1.887,-0.1754 2.734,-0.5996"
     stroke="#000000"
     stroke-width="4.72"
     stroke-linecap="round"
     stroke-linejoin="round"
     id="path43" />
  <path
     d="m 310.086,29.0552 c -0.074,-0.9447 -0.392,-1.8539 -0.924,-2.638 -0.677,-1.0389 -1.682,-1.8209 -2.856,-2.221 -1.173,-0.4001 -2.447,-0.3952 -3.617,0.014 -1.17,0.4091 -2.17,1.1989 -2.839,2.243 -0.668,1.0442 -0.968,2.2824 -0.85,3.5168"
     stroke="#000000"
     stroke-width="4.72"
     stroke-miterlimit="10"
     stroke-linecap="round"
     id="path44" />
  <path
     d="m 309.85,26.1954 c 1.109,-1.848 2.333,-2.8828 4.62,-3.0723 1.418,-0.1159 2.838,0.2146 4.059,0.9452 1.222,0.7306 2.185,1.8249 2.754,3.1297 -0.079,-0.1802 1.778,-1.0257 1.968,-1.0996 0.74,-0.2831 1.518,-0.4543 2.309,-0.5082 2.109,-0.1135 4.181,0.592 5.783,1.9693 1.601,1.3773 2.609,3.32 2.814,5.4227 0.101,1.2357 -0.089,2.4779 -0.555,3.6267"
     stroke="#000000"
     stroke-width="4.72"
     stroke-linecap="square"
     stroke-linejoin="round"
     id="path45" />
  <path
     d="m 341.825,89.3785 c 0,0 4.314,14.3495 -20.353,15.1255"
     stroke="#000000"
     stroke-width="4.72"
     stroke-miterlimit="10"
     id="path46" />
  <path
     d="m 213.572,233.148 c -0.041,-10.492 10.269,-13.315 15.207,-13.222 30.602,0.582 35.217,-48.917 35.217,-48.917"
     stroke="#000000"
     stroke-width="4.72"
     stroke-linecap="round"
     stroke-linejoin="round"
     id="path47" />
  <path
     d="m 373.738,217.602 c 0,0 -3.612,35.639 0,47.632 3.613,11.994 -17.16,2.583 -17.16,2.583"
     stroke="#000000"
     stroke-width="4.72"
     stroke-miterlimit="10"
     id="path48" />
  <path
     d="M 166.785,244.463 H 142.77"
     stroke="#000000"
     stroke-width="4.72"
     stroke-linecap="round"
     stroke-linejoin="round"
     id="path49" />
  <path
     d="M 252.831,244.463 H 206.879"
     stroke="#000000"
     stroke-width="4.72"
     stroke-linecap="round"
     stroke-linejoin="round"
     id="path50" />
  <path
     d="M 200.288,244.463 H 173.159"
     stroke="#000000"
     stroke-width="4.72"
     stroke-linecap="round"
     stroke-linejoin="round"
     id="path51" />
  <path
     d="M 199.59,233.148 H 172.767"
     stroke="#000000"
     stroke-width="4.72"
     stroke-linecap="round"
     stroke-linejoin="round"
     id="path52" />
  <path
     d="M 220.963,233.148 H 206.482"
     stroke="#000000"
     stroke-width="4.72"
     stroke-linecap="round"
     stroke-linejoin="round"
     id="path53" />
  <path
     d="m 257.774,233.148 h -27.97"
     stroke="#000000"
     stroke-width="4.72"
     stroke-linecap="round"
     stroke-linejoin="round"
     id="path54" />
  <path
     d="M 166.064,233.148 H 161.32"
     stroke="#000000"
     stroke-width="4.72"
     stroke-linecap="round"
     stroke-linejoin="round"
     id="path55" />
  <path
     d="m 198.703,232.132 h 6.204 c 0,0 7.109,6.713 0,14.396 v 5.368 h -6.204"
     stroke="#000000"
     stroke-width="4.72"
     stroke-linecap="round"
     stroke-linejoin="round"
     id="path56" />
  <path
     d="m 171.385,232.132 c 0,0 7.109,6.713 0,14.396 v 5.368"
     stroke="#000000"
     stroke-width="4.72"
     stroke-linecap="round"
     stroke-linejoin="round"
     id="path57" />
  <path
     d="m 171.385,251.896 h -6.203 v -5.368 c 7.113,-7.683 0,-14.396 0,-14.396 h 6.203"
     stroke="#000000"
     stroke-width="4.72"
     stroke-linecap="round"
     stroke-linejoin="round"
     id="path58" />
  <path
     d="m 198.703,232.132 c 0,0 7.114,6.713 0,14.396 v 5.368"
     stroke="#000000"
     stroke-width="4.72"
     stroke-linecap="round"
     stroke-linejoin="round"
     id="path59" />
  <path
     d="m 165.182,246.528 h 6.203"
     stroke="#000000"
     stroke-width="4.72"
     stroke-linecap="round"
     stroke-linejoin="round"
     id="path60" />
  <path
     d="m 198.703,246.528 h 6.204"
     stroke="#000000"
     stroke-width="4.72"
     stroke-linecap="round"
     stroke-linejoin="round"
     id="path61" />
  <path
     d="m 222.617,229.72 c -0.792,1.01 -1.356,2.18 -1.654,3.428 -0.392,1.844 -0.539,3.731 -0.438,5.614 0.027,1.848 0.258,3.742 2.013,4.712 2.638,1.474 5.807,-0.633 5.945,-3.654 0.151,-2.272 0.596,-4.514 1.321,-6.672 0.028,-0.106 0.061,-0.198 0.088,-0.286"
     stroke="#000000"
     stroke-width="4.72"
     stroke-linecap="round"
     stroke-linejoin="round"
     id="path62" />
  <path
     d="m 229.892,232.848 c 2.199,-0.462 5.474,-1.668 7.141,-4.777"
     stroke="#000000"
     stroke-width="4.72"
     stroke-linecap="round"
     stroke-linejoin="round"
     id="path63" />
  <path
     d="m 214.889,244.463 c 0,0 1.727,4.555 6.074,5.109 4.347,0.555 1.598,-5.109 1.598,-5.109 0,0 1.802,3.991 3.982,4.125 2.18,0.134 4.065,-1.848 3.312,-4.125 0,0 0.665,3.663 3.889,3.261 3.225,-0.402 1.894,-3.261 1.894,-3.261"
     stroke="#000000"
     stroke-width="4.72"
     stroke-linecap="round"
     stroke-linejoin="round"
     id="path64" />
  <g
     opacity="0.54"
     id="g66">
    <path
       opacity="0.54"
       d="m 165.306,309.351 -3.118,45.035 c -1.69,3.059 -3.593,5.766 -5.289,7.439 -0.226,-0.084 -0.461,-0.167 -0.679,-0.268 -0.415,-0.144 -0.826,-0.31 -1.219,-0.462 -6.319,-2.772 -11.086,-7.933 -12.518,-13.759 -1.256,-5.123 -0.12,-10.658 -2.559,-15.472 -2.975,-5.928 -11.086,-9.647 -12.061,-16.341 -0.924,-6.26 4.707,-12.012 3.797,-18.138 -1.053,-6.93 -9.562,-11.051 -11.151,-17.829 -0.993,-4.213 -0.106,-9.046 -0.461,-13.398 -0.421,-4.849 -1.242,-9.654 -2.453,-14.368 12.559,-0.924 25.345,6.006 29.415,15.925 3.326,8.118 1.321,17.602 6.527,24.999 2.827,4.006 7.538,6.999 9.973,11.194 0.75,1.307 1.294,2.722 1.612,4.195 0.023,0.102 0.023,0.208 0.041,0.287 0.023,0.166 0.042,0.291 0.06,0.415 0.042,0.361 0.083,0.546 0.083,0.546 z"
       fill="#3fbdf1"
       id="path65" />
    <path
       opacity="0.54"
       d="m 165.329,309.332 h -0.023 c 0,0 -0.041,-0.185 -0.083,-0.536 0.039,0.143 0.067,0.288 0.083,0.435 0.023,0.037 0.023,0.078 0.023,0.101 z"
       fill="#3fbdf1"
       id="path66" />
  </g>
  <path
     d="m 206.824,291.771 c -1.654,5.845 -10.532,9.398 -11.608,15.39 -0.952,5.308 4.915,10.265 3.945,15.657 -1.03,5.789 -9.461,8.99 -12.555,14.114 -2.522,4.158 -1.345,8.921 -2.647,13.343 -1.506,5.021 -6.467,9.503 -13.096,11.878 -0.411,0.147 -0.803,0.291 -1.219,0.415 -0.226,0.06 -0.462,0.144 -0.702,0.204 -2.19,-1.798 -4.689,-4.958 -6.735,-8.367 l 3.118,-45.036 h 0.023 c 2.416,-2.047 5.183,-3.927 7.104,-6.2 2.088,-2.458 3.058,-5.142 3.696,-7.951 h 0.009 v -0.31 c 0.924,-4.444 0.993,-9.092 3.081,-13.305 4.231,-8.575 17.511,-14.544 30.588,-13.759 -1.232,4.049 -2.077,8.206 -2.522,12.414 -0.379,3.724 0.555,7.896 -0.48,11.513 z"
     fill="#f5bd33"
     id="path67" />
  <path
     d="m 176.157,294.872 v 0.309 h -0.06 c 0.032,-0.106 0.06,-0.208 0.06,-0.309 z"
     fill="#3fbdf1"
     id="path68" />
  <path
     d="m 176.157,294.871 c 0,0.102 -0.042,0.204 -0.06,0.31 -0.619,2.809 -1.589,5.493 -3.695,7.951 -1.922,2.273 -4.689,4.158 -7.105,6.2 0,0 0,-0.065 -0.023,-0.083 -0.016,-0.147 -0.044,-0.292 -0.083,-0.434 0,-0.125 -0.037,-0.25 -0.06,-0.416 0,-0.079 0,-0.185 -0.042,-0.287 -0.318,-1.473 -0.861,-2.888 -1.612,-4.195 -2.434,-4.195 -7.146,-7.188 -9.973,-11.194 0,0 1.28,-21.113 12.08,-27.54 10.259,-6.075 10.573,26.173 10.573,29.688 z"
     fill="#3fbdf1"
     id="path69" />
  <path
     d="m 176.157,294.872 v 0.309 h -0.06 c 0.032,-0.106 0.06,-0.208 0.06,-0.309 z"
     fill="#3fbdf1"
     id="path70" />
  <path
     d="m 165.307,309.249 v 0.102 c 0,0 -0.042,-0.185 -0.084,-0.536 0.04,0.142 0.067,0.287 0.084,0.434 z"
     fill="#3fbdf1"
     id="path71" />
  <path
     d="m 164.346,309.355 c 2.406,-2.051 5.196,-3.955 7.127,-6.223 5.414,-6.394 3.331,-14.562 6.804,-21.571 4.227,-8.565 17.553,-14.534 30.598,-13.749 -1.244,4.046 -2.092,8.204 -2.531,12.414 -0.389,3.747 0.54,7.923 -0.462,11.55 -1.663,5.84 -10.537,9.383 -11.618,15.38 -0.956,5.304 4.924,10.261 3.95,15.653 -1.035,5.788 -9.456,8.986 -12.56,14.109 -2.527,4.158 -1.339,8.921 -2.651,13.352 -1.589,5.341 -7.1,10.062 -14.32,12.284 -0.231,0.079 -0.462,0.158 -0.711,0.218 -2.19,-1.798 -4.689,-4.953 -6.74,-8.367"
     stroke="#000000"
     stroke-width="4.72"
     stroke-miterlimit="10"
     id="path72" />
  <path
     d="m 200.893,274.53 c -19.489,20.979 -28.639,65.216 -32.219,88.034 -0.291,1.926 -0.554,3.696 -0.781,5.276"
     stroke="#000000"
     stroke-width="4.72"
     stroke-miterlimit="10"
     id="path73" />
  <path
     d="m 202.69,380.688 -8.98,52.917 c -0.212,1.451 -0.932,2.78 -2.032,3.749 -1.099,0.97 -2.507,1.518 -3.973,1.546 h -46.82 c -1.478,-0.032 -2.895,-0.592 -3.997,-1.578 -1.101,-0.987 -1.813,-2.334 -2.008,-3.8 l -8.268,-52.834 z"
     stroke="#000000"
     stroke-width="4.72"
     stroke-miterlimit="10"
     id="path74" />
  <path
     d="m 211.208,374.793 c -0.255,3.335 -2.897,5.904 -6.065,5.904 h -80.836 c -3.137,0 -5.756,-2.513 -6.056,-5.812 -0.347,-3.77 2.466,-7.036 6.056,-7.036 h 80.836 c 3.556,0 6.356,3.202 6.065,6.944 z"
     stroke="#000000"
     stroke-width="4.72"
     stroke-miterlimit="10"
     id="path75" />
  <path
     d="m 155.939,361.834 c 3.469,-3.447 7.714,-11.116 9.598,-17.385 1.548,-5.17 -1.182,-10.488 -1.806,-15.787 -0.979,-8.316 3.146,-17.228 -1.201,-24.749 -2.42,-4.195 -7.132,-7.18 -9.959,-11.199 -5.21,-7.392 -3.21,-16.863 -6.54,-24.98 -4.056,-9.938 -16.842,-16.845 -29.397,-15.944 1.2,4.72 2.013,9.53 2.43,14.382 0.374,4.338 -0.522,9.171 0.462,13.398 1.593,6.778 10.111,10.88 11.155,17.824 0.924,6.14 -4.721,11.883 -3.792,18.133 0.997,6.704 9.076,10.409 12.065,16.346 2.425,4.823 1.289,10.349 2.55,15.468 1.58,6.394 7.169,12.012 14.435,14.493 z"
     stroke="#000000"
     stroke-width="4.72"
     stroke-miterlimit="10"
     id="path76" />
  <path
     d="m 124.297,259.579 c 18.708,24.302 27.512,75.537 30.949,101.987 0.296,2.31 0.559,4.393 0.767,6.274"
     stroke="#000000"
     stroke-width="4.72"
     stroke-miterlimit="10"
     id="path77" />
  <path
     d="m 152.571,292.714 c 0,0 1.284,-21.114 12.079,-27.535 10.796,-6.422 10.583,29.577 10.583,29.577"
     stroke="#000000"
     stroke-width="4.72"
     stroke-miterlimit="10"
     id="path78" />
  <path
     d="m 164.346,309.355 c 0,0 -2.208,-12.081 1.658,-23.954"
     stroke="#000000"
     stroke-width="4.72"
     stroke-miterlimit="10"
     id="path79" />
  <path
     d="M 412.812,244.463 H 372.399"
     stroke="#000000"
     stroke-width="4.72"
     stroke-linecap="round"
     stroke-linejoin="round"
     id="path80" />
  <path
     d="M 413.468,233.148 H 373.692"
     stroke="#000000"
     stroke-width="4.72"
     stroke-linecap="round"
     stroke-linejoin="round"
     id="path81" />
  <path
     fill-rule="evenodd"
     clip-rule="evenodd"
     d="m 75.3985,95.5819 c 0.565,0 1.0616,0.0861 1.5135,-0.0187 0.8367,-0.1938 1.9625,-1.8987 1.8983,-2.7643 -0.0095,-0.1326 -0.053,-0.3256 -0.1445,-0.3786 -0.4196,-0.2411 -0.8624,-0.4424 -1.2965,-0.6582 -0.2576,0.4436 -1.0554,-0.0538 -1.1643,0.681 -0.0447,0.3027 -0.7365,0.1093 -0.5521,0.6465 -0.447,0.7945 -0.1197,1.6403 -0.2544,2.4923 z m -2.2081,-3.442 c 0.1359,-0.2328 0.3123,-0.4478 0.3964,-0.6942 0.3049,-0.8931 1.0964,-1.2364 1.8565,-1.451 0.5281,-0.1491 1.0901,-0.3272 1.6974,-0.2845 1.3793,0.0973 2.3481,0.7447 3.0381,1.914 0.3219,0.5451 0.6242,1.0964 0.7601,1.7102 0.0915,0.4155 0.2038,0.8968 0.0816,1.2758 -0.4743,1.4716 -1.2832,2.7068 -2.8141,3.2916 -0.4217,0.1607 -0.8603,0.2788 -1.2935,0.4093 -0.0688,0.0211 -0.1612,0.0289 -0.2221,-9e-4 -1.11,-0.5393 -2.1828,-1.1535 -2.8273,-2.247 -0.2767,-0.4693 -0.5331,-1.0123 -0.4651,-1.6026 0.082,-0.7157 -0.2237,-1.4687 0.2037,-2.1505 -0.1279,-0.053 -0.2563,-0.106 -0.4117,-0.1702 z"
     fill="#3fbdf1"
     id="path82" />
  <path
     fill-rule="evenodd"
     clip-rule="evenodd"
     d="m 40.1854,105.402 c -0.3587,-0.082 -0.5679,-0.232 -0.4391,-0.656 0.0555,-0.026 0.1537,-0.052 0.2303,-0.108 0.7315,-0.528 1.6311,-0.608 2.4546,-0.87 0.3591,-0.114 0.929,-0.012 1.2297,0.218 0.9349,0.717 1.972,1.339 2.4144,2.569 0.3653,1.015 0.2179,2.318 -0.4274,3.149 -0.3745,0.482 -0.8989,0.785 -1.2845,1.275 -0.6321,-0.103 -1.2981,0.154 -1.9268,-0.226 -0.2937,-0.178 -1.5724,-0.854 -1.8225,-1.041 -0.5828,-0.435 -0.8102,-1.072 -1.0281,-1.718 -0.0451,-0.133 -0.1168,-0.303 -0.0716,-0.413 0.2891,-0.708 0.0832,-1.557 0.671,-2.179 z"
     fill="#3fbdf1"
     id="path83" />
  <path
     fill-rule="evenodd"
     clip-rule="evenodd"
     d="m 91.2098,82.1309 c 0.8976,0.8562 2.397,1.3337 3.6296,1.2869 0.5907,-0.0219 1.0368,-0.2294 1.4282,-0.6337 0.2266,-0.234 0.4589,-0.4618 0.6946,-0.6979 -0.1338,-0.1843 -0.2539,-0.2862 -0.2916,-0.413 -0.1748,-0.5815 -0.4929,-0.9464 -1.1502,-0.9961 -0.2982,-0.0224 -0.5807,-0.2171 -0.8785,-0.3065 -0.1947,-0.0584 -0.5372,-0.1566 -0.5853,-0.085 -0.2721,0.4084 -0.42,-0.2319 -0.7766,0.0787 -0.2055,0.1931 -0.5488,0.5157 -0.8943,0.84 -0.2792,-0.2195 -0.4991,-0.3926 -0.6938,-0.5455 -0.7074,0.3534 -0.3496,0.9502 -0.4821,1.4721 z m 7.0108,0.7381 c 0.2162,0.075 0.3471,0.1205 0.4862,0.1686 -0.1122,0.3537 -0.217,0.6851 -0.3226,1.0181 -0.1773,0.0203 -0.355,0.0414 -0.6039,0.07 0.0824,0.1106 0.1342,0.181 0.2145,0.2891 -0.3827,0.471 -0.8226,0.8326 -1.5014,0.8027 -0.1695,-0.0074 -0.3467,0.0605 -0.5132,0.1152 -0.4623,0.152 -0.9125,0.1839 -1.3723,-0.0232 -0.1574,-0.0708 -0.4556,-0.1512 -0.5061,-0.0862 -0.4234,0.5472 -0.7717,-0.1565 -1.1867,-0.0617 -0.1744,0.0398 -0.3397,-0.4158 -0.7125,-0.4287 -0.1992,-0.0066 -0.3756,-0.3003 -0.5873,-0.4196 -0.2477,-0.1396 -0.345,-0.5123 -0.712,-0.4585 -0.1723,-0.5571 -0.7294,-0.8143 -1.009,-1.2766 -0.6225,-1.0288 -0.6234,-2.5075 -0.1114,-3.5029 0.4527,-0.8818 1.3064,-1.1398 2.0909,-0.5467 0.3802,0.2879 0.6689,0.5169 1.1022,0.1694 0.1491,0.2365 0.2878,0.1413 0.3963,-0.0282 0.1728,-0.2696 0.4358,-0.2853 0.6926,-0.2319 0.893,0.1876 1.7997,0.4407 2.5183,0.9792 0.6321,0.4738 1.0848,1.1866 1.6167,1.7939 -0.0431,0.5388 0.6416,1.0479 0.0207,1.658 z"
     fill="#3fbdf1"
     id="path84" />
  <path
     fill-rule="evenodd"
     clip-rule="evenodd"
     d="m 106.45,108.569 c 0.339,-0.177 0.72,-0.47 1.278,-0.243 -0.059,0.08 -0.11,0.149 -0.212,0.29 0.22,0.057 0.577,0.068 0.604,0.169 0.185,0.693 0.967,0.889 1.201,1.531 0.395,1.087 0.742,2.171 0.161,3.296 -0.064,0.125 -0.13,0.154 -0.038,0.331 0.257,0.488 0.018,0.839 -0.43,1.093 -0.311,0.176 -0.139,0.351 0.043,0.528 -0.39,0.499 -0.78,1.001 -1.164,1.494 h -1.242 c -0.229,-0.247 -0.511,-0.545 -0.788,-0.848 -0.248,-0.272 -0.574,-0.442 -0.799,-0.769 -0.508,-0.742 -0.605,-1.543 -0.434,-2.368 0.132,-0.641 0.447,-1.243 0.605,-1.881 0.103,-0.417 0.205,-0.752 0.621,-0.98 0.168,-0.091 0.283,-0.426 0.278,-0.647 -0.007,-0.324 0.218,-0.445 0.359,-0.65 0.046,-0.067 -0.023,-0.213 -0.043,-0.346 z"
     fill="#3fbdf1"
     id="path85" />
  <path
     fill-rule="evenodd"
     clip-rule="evenodd"
     d="m 117.893,73.1143 c -0.053,-0.053 -0.13,-0.0965 -0.156,-0.1607 -0.184,-0.4689 -0.68,-0.3906 -1.024,-0.5165 -0.185,-0.0676 -0.511,0.2385 -0.767,0.3856 -0.114,0.0654 -0.342,0.4399 -0.494,0.7112 -0.118,0.2108 -0.247,0.555 -0.405,0.5753 -0.357,0.0468 -0.284,0.2452 -0.317,0.4581 -0.022,0.1466 -0.12,0.2817 -0.176,0.4047 0.791,0.8044 1.536,0.4672 2.351,0.0886 0.889,-0.4129 1.044,-1.103 0.988,-1.9463 z m -2.086,3.9618 c -0.17,0.2494 -0.321,0.4672 -0.475,0.6938 -0.102,-0.0944 -0.192,-0.2398 -0.258,-0.2299 -0.805,0.1206 -1.071,-0.6536 -1.612,-0.963 -0.061,-0.0348 -0.103,-0.2551 -0.066,-0.287 0.563,-0.4805 -0.037,-0.8355 -0.112,-1.2509 -0.089,0.0799 -0.168,0.1516 -0.248,0.2224 -0.027,-0.0269 -0.078,-0.0547 -0.077,-0.0799 0.027,-0.4925 -0.241,-1.0289 0.254,-1.4551 0.113,-0.0974 0.091,-0.3347 0.175,-0.4834 0.214,-0.3811 0.271,-0.8843 0.663,-1.1233 0.402,-0.2461 0.245,-0.7468 0.646,-1.0355 0.681,-0.4904 1.744,-0.739 2.542,-0.4411 1.157,0.4328 1.895,1.3138 2.326,2.3791 0.347,0.8574 0.511,1.8291 0.35,2.7702 -0.094,0.548 -0.576,0.9245 -1.003,1.2538 -0.129,0.0986 -0.45,-0.053 -0.751,-0.1011 0.02,0.0779 0.023,0.2465 0.101,0.367 0.12,0.1847 0.168,0.3579 -0.063,0.432 -0.234,0.0758 -0.321,-0.0865 -0.306,-0.3177 0.002,-0.0377 -0.103,-0.0824 -0.22,-0.1698 -0.177,0.1475 -0.368,0.3069 -0.598,0.4987 -0.036,-0.1247 -0.071,-0.2469 -0.138,-0.478 -0.297,0.2755 -0.564,0.5227 -0.956,0.8852 -0.074,-0.4615 -0.121,-0.758 -0.174,-1.0865 z"
     fill="#3fbdf1"
     id="path86" />
  <path
     fill-rule="evenodd"
     clip-rule="evenodd"
     d="m 58.9041,88.7275 c 0.1869,0.1578 0.2697,0.2278 0.3712,0.3132 0.0712,-0.1438 0.1246,-0.396 0.2195,-0.4126 0.2411,-0.0422 0.5633,-0.0675 0.741,0.0584 0.5331,0.379 1.0935,0.7696 1.4891,1.2766 0.3744,0.4809 0.6233,1.0943 0.7919,1.6883 0.0973,0.3438 0.0423,0.7377 -0.1586,1.1531 -0.4126,0.8504 -0.8259,1.6133 -1.6867,2.1137 -0.3806,0.2212 -0.8085,0.2311 -1.1688,0.4544 -0.1425,0.0886 -0.3157,0.1271 -0.4817,0.1909 -0.0618,-0.1093 -0.1413,-0.2506 -0.2208,-0.3914 -0.1276,0.1822 -0.2133,0.1607 -0.4084,0.0261 -0.3504,-0.2423 -1.0318,-0.862 -1.3271,-1.1035 -0.9506,-0.7762 -0.403,-1.7417 -0.3616,-2.6268 0.0099,-0.222 0.3645,-0.4283 0.5741,-0.6561 0.7766,0.4175 1.178,1.0844 1.4497,1.8212 0.7617,-0.0948 0.8851,-0.8056 1.3035,-1.2016 0.0923,-0.0874 0.0298,-0.3392 0.0472,-0.6991 -0.3653,0.3649 -0.6077,0.6072 -0.811,0.8101 -0.5729,-0.0406 -0.5037,-0.731 -0.9862,-0.7729 -0.0079,-0.4473 -0.0845,-0.9091 0.0024,-1.337 0.0497,-0.2431 0.3683,-0.4312 0.6213,-0.705 z"
     fill="#3fbdf1"
     id="path87" />
  <path
     fill-rule="evenodd"
     clip-rule="evenodd"
     d="m 102.064,59.3639 c 0.323,-0.3235 0.563,-0.5633 0.843,-0.8429 h 1.4 c 0.146,-0.6109 -0.306,-0.3637 -0.597,-0.4444 0.031,-0.0787 0.04,-0.1728 0.091,-0.2171 0.357,-0.3065 -0.171,-0.4258 -0.121,-0.7373 0.239,-0.5678 0.905,-0.6714 1.406,-0.9808 0.141,-0.0878 0.417,-0.0393 0.598,0.0319 0.917,0.362 1.249,1.1846 1.618,2.0139 0.238,0.533 0.017,1.1626 0.432,1.6286 -0.164,0.6097 -0.228,1.2741 -0.522,1.8134 -0.312,0.5728 -0.98,0.8847 -1.607,0.9472 -0.347,0.0348 -0.65,0.4428 -0.992,0.1782 -0.289,-0.2245 -0.697,-0.0982 -0.96,-0.4532 -0.188,-0.2531 -0.604,-0.27 -0.718,-0.7124 -0.055,-0.2183 -0.473,-0.2531 -0.661,-0.5998 -0.304,-0.5591 -0.079,-1.093 -0.21,-1.6253 z"
     fill="#3fbdf1"
     id="path88" />
  <path
     fill-rule="evenodd"
     clip-rule="evenodd"
     d="m 98.0943,94.7494 c 0.1404,0.56 0.2638,1.0309 0.3736,1.5048 0.0248,0.1064 0.0518,0.2754 -0.0037,0.3272 -0.4975,0.4606 -0.0352,0.8392 0.0857,1.2459 0.8694,0.0141 0.8454,-0.0406 1.2915,-0.6756 0.5306,-0.7559 0.4396,-1.5781 0.4246,-2.4011 -0.003,-0.1495 -0.145,-0.3297 -0.273,-0.4374 -0.2548,-0.2154 -0.6743,0.1172 -0.9063,-0.2415 l -0.2365,0.3616 c -0.4391,-0.2932 -0.5501,0.1773 -0.7559,0.3161 z m -1.0326,0.7248 c -0.1355,-0.263 -0.2792,-0.5417 -0.3964,-0.7696 0.1276,-0.6751 0.8959,-0.4883 1.1461,-1.0127 0.2452,-0.5148 0.9945,-0.2953 1.3958,-0.8147 -0.159,-0.1069 -0.3131,-0.21 -0.4701,-0.3156 0.0224,-0.0286 0.0539,-0.1086 0.0974,-0.1164 0.7608,-0.1388 1.3155,0.268 1.8335,0.7302 0.431,0.3844 0.678,0.91 1.002,1.3752 0.182,0.2613 -0.135,0.502 0.14,0.6685 0.246,0.1495 0.322,0.3926 0.276,0.6714 -0.051,0.3061 0.238,0.6358 0.186,0.7949 -0.122,0.3744 -0.132,0.7662 -0.257,1.1295 -0.235,0.678 -0.579,1.2956 -1.11,1.7931 -0.305,0.2853 -0.734,0.3814 -1.2707,0.2874 C 98.3378,99.6688 98.3225,99.6825 97.7381,99.0401 97.28,98.5368 96.983,97.9619 96.86,97.2582 c -0.0705,-0.3993 -0.3074,-0.7514 -0.0261,-1.1465 -0.377,-0.362 0.193,-0.3533 0.2278,-0.6375 z"
     fill="#3fbdf1"
     id="path89" />
  <path
     fill-rule="evenodd"
     clip-rule="evenodd"
     d="m 66.7756,64.8359 c 1.028,0.5791 1.265,1.062 0.7,1.9443 -0.2912,0.4552 0.0692,0.968 -0.3421,1.3416 -0.0609,0.0551 0.0994,0.3566 0.1602,0.543 0.1686,0.5124 0.3351,0.5584 0.8927,0.4113 1.0644,-0.28 1.5685,-1.033 1.8249,-2.0536 -0.3968,-0.1127 -0.7961,-0.2203 -1.192,-0.3396 -0.4834,-0.1454 -0.3078,-0.6884 -0.5058,-0.9378 0.2278,-0.2278 0.478,-0.478 0.7286,-0.7282 0.6884,-0.3847 1.1159,0.3674 1.7434,0.5377 0.4606,0.7435 1.1034,1.3884 1.0371,2.3845 -0.0845,1.2575 -0.6262,2.3059 -2.0002,2.8091 -1.1465,0.4209 -2.0536,0.2444 -3.0373,-0.63 -0.5993,-0.5326 -1.0881,-1.0814 -1.1092,-2.0275 -0.029,-1.2492 0.21,-2.3468 1.0997,-3.2548 z"
     fill="#3fbdf1"
     id="path90" />
  <path
     fill-rule="evenodd"
     clip-rule="evenodd"
     d="m 65.1991,111.142 c -0.98,0.288 -1.552,-0.372 -2.211,-0.766 -0.6043,-0.362 -0.683,-1.074 -0.8619,-1.659 -0.1649,-0.542 0.1682,-1.105 0.3645,-1.63 0.1653,-0.441 0.4382,-0.843 0.6619,-1.26 -0.1023,-0.037 -0.2328,-0.085 -0.3902,-0.142 0.1665,-0.175 0.3131,-0.329 0.4954,-0.521 -0.234,-0.043 -0.4399,-0.08 -0.7783,-0.141 0.2187,-0.163 0.3732,-0.373 0.5132,-0.364 0.391,0.027 0.7737,-0.109 1.185,0.116 1.0471,0.571 1.5823,1.527 1.9683,2.553 0.5414,1.44 0.2518,2.749 -0.9469,3.814 z"
     fill="#3fbdf1"
     id="path91" />
  <path
     fill-rule="evenodd"
     clip-rule="evenodd"
     d="m 77.7439,116.501 c -0.1077,0.217 -0.2001,0.402 -0.307,0.617 0.7431,0.764 1.05,1.684 0.9316,2.75 -0.0286,0.253 -0.0216,0.471 -0.2108,0.708 -0.3587,0.45 -0.4076,1.106 -1.1039,1.344 -0.3015,0.103 -0.6304,0.188 -0.8334,0.084 -0.5649,-0.291 -1.2144,-0.515 -1.5648,-1.096 -0.1752,-0.29 -0.3376,-0.591 -0.3744,-0.973 -0.1222,-1.254 0.3872,-2.295 1.0251,-3.293 0.1433,-0.225 0.386,-0.387 0.6751,-0.518 0.3331,-0.15 0.5389,-0.272 0.8724,-0.024 0.2427,0.182 0.5629,0.26 0.8901,0.401 z"
     fill="#3fbdf1"
     id="path92" />
  <path
     fill-rule="evenodd"
     clip-rule="evenodd"
     d="m 118.472,90.6242 c -0.446,-0.3434 -0.708,-0.963 -1.404,-0.9373 -0.174,-0.302 -0.45,-0.5869 -0.502,-0.9088 -0.127,-0.7799 0.056,-1.4762 0.862,-1.8581 0.095,-0.0451 0.16,-0.1541 0.264,-0.2576 -0.141,-0.0477 -0.266,-0.0903 -0.279,-0.0945 0.196,-0.1963 0.438,-0.4382 0.68,-0.6797 -0.052,-0.0617 -0.105,-0.123 -0.157,-0.1847 0.104,-0.0141 0.212,-0.0538 0.31,-0.0369 0.453,0.0783 0.976,-0.2303 1.36,0.2328 0.501,0.6019 0.87,1.2571 1.016,2.0491 0.195,1.0512 -0.821,2.2135 -1.591,2.5883 -0.197,0.0953 -0.441,-0.2899 -0.559,0.0874 z"
     fill="#3fbdf1"
     id="path93" />
  <path
     fill-rule="evenodd"
     clip-rule="evenodd"
     d="m 88.5308,104.376 c 0,0.311 -0.0195,0.465 0.0033,0.612 0.1176,0.766 -0.5219,1.037 -0.9667,1.375 -0.4424,0.335 -0.8653,-0.157 -1.2791,-0.28 -0.3865,-0.114 -0.705,-0.485 -1.0305,-0.768 -0.5489,-0.478 -0.7543,-1.612 -0.4064,-2.291 0.0791,-0.154 -0.0054,-0.417 0.3616,-0.452 0.2191,-0.021 0.4262,-0.37 0.6023,-0.599 0.4614,-0.597 0.8657,-0.666 1.3598,-0.144 0.3227,0.341 0.6967,0.62 0.927,1.077 0.2667,0.53 0.5662,1.011 0.4287,1.47 z"
     fill="#3fbdf1"
     id="path94" />
  <path
     fill-rule="evenodd"
     clip-rule="evenodd"
     d="m 76.2214,78.6585 c 0.4883,0.5248 1.0326,0.9784 1.289,1.7169 0.3177,0.9145 0.1445,1.4137 -0.6333,1.9467 -0.8864,0.6077 -1.4791,0.5025 -2.2529,-0.2866 -0.1052,-0.1073 -0.212,-0.2125 -0.297,-0.297 -0.1284,-0.396 0.1657,-0.8528 -0.2555,-1.1622 -0.234,-1.043 0.4709,-1.8975 1.5835,-1.9174 0.1876,-0.0033 0.3752,-4e-4 0.5662,-4e-4 z"
     fill="#3fbdf1"
     id="path95" />
  <path
     fill-rule="evenodd"
     clip-rule="evenodd"
     d="m 86.7231,67.0475 c 0.2033,-0.1586 0.3276,-0.2556 0.4519,-0.3525 -0.1454,-0.1222 -0.2908,-0.2448 -0.4329,-0.3641 0.058,-0.0646 0.128,-0.1429 0.2262,-0.2518 -0.256,-0.0563 -0.4838,-0.106 -0.7576,-0.1657 0.3202,-0.8594 1.1067,-0.922 1.7231,-1.2028 0.1205,-0.0547 0.3802,0.1039 0.5293,0.2224 0.6043,0.4784 1.0446,1.0898 1.3507,1.7956 0.0402,0.0932 0.0941,0.2617 0.0559,0.2945 -0.5334,0.4552 0.1707,1.3362 -0.5285,1.641 -0.1371,0.0597 -0.4448,-0.292 -0.8131,-0.3177 0.1496,0.1636 0.2983,0.3277 0.4685,0.5145 -0.2742,0.1818 -0.5331,0.3707 -0.8106,0.5268 -0.0849,0.0485 -0.2212,0.0166 -0.3322,0.0042 C 87.7876,69.3844 87.667,69.3343 87.6695,69.3182 87.761,68.701 87.025,69.1595 86.943,68.7544 86.9024,68.554 86.7516,68.3705 86.733,68.1716 86.6982,67.8005 86.7231,67.424 86.7231,67.0475 Z"
     fill="#3fbdf1"
     id="path96" />
  <path
     fill-rule="evenodd"
     clip-rule="evenodd"
     d="M 88.3267,50.497 V 50 h 1.0065 c 0.5103,0.7663 1.2086,1.4924 0.9617,2.6467 -0.1615,0.0104 -0.364,0.0228 -0.6478,0.0406 v -0.9319 c -0.181,0.0344 -0.3201,0.0195 -0.3711,0.0795 -0.0853,0.0998 -0.094,0.2614 -0.1702,0.3724 -0.1409,0.2046 -0.2179,0.1586 -0.4068,-0.145 -0.1275,-0.2054 -0.3027,-0.3819 -0.4788,-0.5981 0.2316,-0.1069 0.3848,-0.1773 0.5484,-0.2527 -0.4755,-0.2348 -0.4672,-0.2265 -0.0754,-0.6337 0.068,-0.0704 0.0294,-0.2431 0.0477,-0.4631 -0.1682,0.1558 -0.2469,0.2278 -0.4142,0.3823 z"
     fill="#3fbdf1"
     id="path97" />
  <path
     fill-rule="evenodd"
     clip-rule="evenodd"
     d="m 429.399,359.582 c 0.565,0 1.061,0.086 1.513,-0.019 0.837,-0.194 1.963,-1.898 1.898,-2.764 -0.009,-0.133 -0.053,-0.326 -0.144,-0.379 -0.42,-0.241 -0.863,-0.442 -1.297,-0.658 -0.257,0.444 -1.055,-0.054 -1.164,0.681 -0.045,0.303 -0.736,0.109 -0.552,0.647 -0.447,0.794 -0.12,1.64 -0.254,2.492 z m -2.209,-3.442 c 0.136,-0.233 0.313,-0.448 0.397,-0.694 0.305,-0.893 1.096,-1.237 1.856,-1.451 0.528,-0.149 1.09,-0.327 1.698,-0.285 1.379,0.098 2.348,0.745 3.038,1.914 0.322,0.545 0.624,1.097 0.76,1.71 0.091,0.416 0.204,0.897 0.081,1.276 -0.474,1.472 -1.283,2.707 -2.814,3.292 -0.421,0.161 -0.86,0.279 -1.293,0.409 -0.069,0.021 -0.161,0.029 -0.222,-10e-4 -1.11,-0.539 -2.183,-1.153 -2.827,-2.247 -0.277,-0.469 -0.534,-1.012 -0.466,-1.602 0.082,-0.716 -0.223,-1.469 0.204,-2.151 -0.128,-0.053 -0.256,-0.106 -0.412,-0.17 z"
     fill="#3fbdf1"
     id="path98" />
  <path
     fill-rule="evenodd"
     clip-rule="evenodd"
     d="m 394.185,369.402 c -0.358,-0.082 -0.567,-0.232 -0.439,-0.656 0.056,-0.026 0.154,-0.052 0.231,-0.108 0.731,-0.528 1.631,-0.608 2.454,-0.87 0.359,-0.114 0.929,-0.012 1.23,0.218 0.935,0.717 1.972,1.339 2.414,2.569 0.366,1.015 0.218,2.318 -0.427,3.149 -0.375,0.482 -0.899,0.785 -1.285,1.275 -0.632,-0.103 -1.298,0.154 -1.926,-0.226 -0.294,-0.178 -1.573,-0.854 -1.823,-1.041 -0.583,-0.435 -0.81,-1.072 -1.028,-1.718 -0.045,-0.133 -0.117,-0.303 -0.072,-0.413 0.289,-0.708 0.084,-1.557 0.671,-2.179 z"
     fill="#3fbdf1"
     id="path99" />
  <path
     fill-rule="evenodd"
     clip-rule="evenodd"
     d="m 445.21,346.131 c 0.897,0.856 2.397,1.334 3.629,1.287 0.591,-0.022 1.037,-0.23 1.429,-0.634 0.226,-0.234 0.459,-0.462 0.694,-0.698 -0.134,-0.184 -0.254,-0.286 -0.291,-0.413 -0.175,-0.581 -0.493,-0.946 -1.151,-0.996 -0.298,-0.022 -0.58,-0.217 -0.878,-0.306 -0.195,-0.059 -0.537,-0.157 -0.585,-0.085 -0.273,0.408 -0.42,-0.232 -0.777,0.078 -0.205,0.193 -0.549,0.516 -0.894,0.84 -0.279,-0.219 -0.499,-0.392 -0.694,-0.545 -0.708,0.353 -0.35,0.95 -0.482,1.472 z m 7.011,0.738 c 0.216,0.075 0.347,0.121 0.486,0.169 -0.112,0.353 -0.217,0.685 -0.323,1.018 -0.177,0.02 -0.355,0.041 -0.604,0.07 0.083,0.11 0.134,0.181 0.215,0.289 -0.383,0.471 -0.823,0.832 -1.502,0.803 -0.169,-0.008 -0.346,0.06 -0.513,0.115 -0.462,0.152 -0.912,0.184 -1.372,-0.024 -0.157,-0.07 -0.456,-0.151 -0.506,-0.086 -0.424,0.547 -0.772,-0.156 -1.187,-0.061 -0.174,0.039 -0.34,-0.416 -0.712,-0.429 -0.2,-0.007 -0.376,-0.3 -0.588,-0.42 -0.247,-0.139 -0.345,-0.512 -0.712,-0.458 -0.172,-0.557 -0.729,-0.815 -1.009,-1.277 -0.622,-1.029 -0.623,-2.507 -0.111,-3.503 0.453,-0.881 1.306,-1.14 2.091,-0.546 0.38,0.287 0.669,0.517 1.102,0.169 0.149,0.237 0.288,0.141 0.396,-0.028 0.173,-0.27 0.436,-0.286 0.693,-0.232 0.893,0.188 1.8,0.441 2.518,0.979 0.632,0.474 1.085,1.187 1.617,1.794 -0.043,0.539 0.641,1.048 0.021,1.658 z"
     fill="#3fbdf1"
     id="path100" />
  <path
     fill-rule="evenodd"
     clip-rule="evenodd"
     d="m 460.45,372.569 c 0.339,-0.177 0.72,-0.47 1.278,-0.243 -0.059,0.08 -0.11,0.149 -0.212,0.29 0.22,0.057 0.577,0.068 0.604,0.169 0.185,0.693 0.967,0.889 1.201,1.531 0.395,1.087 0.742,2.171 0.161,3.296 -0.064,0.125 -0.13,0.154 -0.038,0.331 0.257,0.488 0.018,0.839 -0.43,1.093 -0.311,0.176 -0.139,0.351 0.043,0.528 -0.39,0.499 -0.78,1.001 -1.164,1.494 h -1.242 c -0.229,-0.247 -0.511,-0.545 -0.788,-0.848 -0.248,-0.272 -0.574,-0.442 -0.799,-0.769 -0.508,-0.742 -0.605,-1.543 -0.434,-2.368 0.132,-0.641 0.447,-1.243 0.605,-1.881 0.103,-0.417 0.205,-0.752 0.621,-0.98 0.168,-0.091 0.283,-0.426 0.278,-0.647 -0.007,-0.324 0.218,-0.445 0.359,-0.65 0.046,-0.067 -0.023,-0.213 -0.043,-0.346 z"
     fill="#3fbdf1"
     id="path101" />
  <path
     fill-rule="evenodd"
     clip-rule="evenodd"
     d="m 412.904,352.728 c 0.187,0.157 0.27,0.227 0.371,0.313 0.072,-0.144 0.125,-0.396 0.22,-0.413 0.241,-0.042 0.563,-0.067 0.741,0.059 0.533,0.379 1.093,0.769 1.489,1.276 0.374,0.481 0.623,1.094 0.792,1.688 0.097,0.344 0.042,0.738 -0.159,1.154 -0.412,0.85 -0.826,1.613 -1.686,2.113 -0.381,0.221 -0.809,0.231 -1.169,0.455 -0.143,0.088 -0.316,0.127 -0.482,0.191 -0.062,-0.11 -0.141,-0.251 -0.221,-0.392 -0.127,0.182 -0.213,0.161 -0.408,0.026 -0.351,-0.242 -1.032,-0.862 -1.327,-1.103 -0.951,-0.776 -0.403,-1.742 -0.362,-2.627 0.01,-0.222 0.365,-0.428 0.574,-0.656 0.777,0.417 1.178,1.084 1.45,1.821 0.762,-0.095 0.885,-0.806 1.303,-1.202 0.093,-0.087 0.03,-0.339 0.048,-0.699 -0.366,0.365 -0.608,0.607 -0.811,0.81 -0.573,-0.04 -0.504,-0.731 -0.987,-0.772 -0.008,-0.448 -0.084,-0.91 0.003,-1.338 0.05,-0.243 0.368,-0.431 0.621,-0.704 z"
     fill="#3fbdf1"
     id="path102" />
  <path
     fill-rule="evenodd"
     clip-rule="evenodd"
     d="m 456.064,323.364 c 0.323,-0.324 0.563,-0.563 0.843,-0.843 h 1.4 c 0.146,-0.611 -0.306,-0.364 -0.597,-0.444 0.031,-0.079 0.04,-0.173 0.091,-0.217 0.357,-0.307 -0.171,-0.426 -0.121,-0.738 0.239,-0.568 0.905,-0.671 1.406,-0.981 0.141,-0.087 0.417,-0.039 0.598,0.032 0.917,0.362 1.249,1.185 1.618,2.014 0.238,0.533 0.017,1.163 0.432,1.629 -0.164,0.61 -0.228,1.274 -0.522,1.813 -0.312,0.573 -0.98,0.885 -1.607,0.947 -0.347,0.035 -0.65,0.443 -0.992,0.179 -0.289,-0.225 -0.697,-0.099 -0.96,-0.454 -0.188,-0.253 -0.604,-0.27 -0.718,-0.712 -0.055,-0.218 -0.473,-0.253 -0.661,-0.6 -0.304,-0.559 -0.079,-1.093 -0.21,-1.625 z"
     fill="#3fbdf1"
     id="path103" />
  <path
     fill-rule="evenodd"
     clip-rule="evenodd"
     d="m 452.094,358.749 c 0.141,0.56 0.264,1.031 0.374,1.505 0.025,0.107 0.052,0.276 -0.004,0.327 -0.497,0.461 -0.035,0.84 0.086,1.246 0.869,0.014 0.845,-0.04 1.291,-0.675 0.531,-0.756 0.44,-1.578 0.425,-2.401 -0.003,-0.15 -0.145,-0.33 -0.273,-0.438 -0.255,-0.215 -0.674,0.117 -0.906,-0.241 l -0.237,0.361 c -0.439,-0.293 -0.55,0.178 -0.756,0.316 z m -1.032,0.725 c -0.136,-0.263 -0.279,-0.542 -0.397,-0.769 0.128,-0.676 0.896,-0.489 1.146,-1.013 0.246,-0.515 0.995,-0.295 1.396,-0.815 -0.159,-0.107 -0.313,-0.21 -0.47,-0.315 0.022,-0.029 0.054,-0.109 0.097,-0.117 0.761,-0.139 1.316,0.268 1.834,0.73 0.431,0.385 0.678,0.91 1.002,1.376 0.182,0.261 -0.135,0.502 0.14,0.668 0.246,0.15 0.322,0.393 0.276,0.672 -0.051,0.306 0.238,0.635 0.186,0.794 -0.122,0.375 -0.132,0.767 -0.257,1.13 -0.235,0.678 -0.579,1.296 -1.11,1.793 -0.305,0.285 -0.734,0.381 -1.271,0.287 -1.296,-0.226 -1.311,-0.212 -1.896,-0.855 -0.458,-0.503 -0.755,-1.078 -0.878,-1.782 -0.07,-0.399 -0.307,-0.751 -0.026,-1.146 -0.377,-0.362 0.193,-0.354 0.228,-0.638 z"
     fill="#3fbdf1"
     id="path104" />
  <path
     fill-rule="evenodd"
     clip-rule="evenodd"
     d="m 420.776,328.836 c 1.028,0.579 1.265,1.062 0.7,1.944 -0.292,0.455 0.069,0.968 -0.343,1.342 -0.06,0.055 0.1,0.356 0.161,0.543 0.168,0.512 0.335,0.558 0.892,0.411 1.065,-0.28 1.569,-1.033 1.825,-2.053 -0.396,-0.113 -0.796,-0.221 -1.192,-0.34 -0.483,-0.146 -0.307,-0.689 -0.505,-0.938 0.227,-0.228 0.478,-0.478 0.728,-0.728 0.688,-0.385 1.116,0.367 1.743,0.538 0.461,0.743 1.104,1.388 1.038,2.384 -0.085,1.258 -0.627,2.306 -2.001,2.809 -1.146,0.421 -2.053,0.245 -3.037,-0.63 -0.599,-0.532 -1.088,-1.081 -1.109,-2.027 -0.029,-1.25 0.21,-2.347 1.1,-3.255 z"
     fill="#3fbdf1"
     id="path105" />
  <path
     fill-rule="evenodd"
     clip-rule="evenodd"
     d="m 419.199,375.142 c -0.98,0.288 -1.552,-0.372 -2.211,-0.766 -0.604,-0.362 -0.683,-1.074 -0.862,-1.659 -0.165,-0.542 0.168,-1.105 0.365,-1.63 0.165,-0.441 0.438,-0.843 0.662,-1.26 -0.103,-0.037 -0.233,-0.085 -0.391,-0.142 0.167,-0.175 0.314,-0.329 0.496,-0.521 -0.234,-0.043 -0.44,-0.08 -0.778,-0.141 0.218,-0.163 0.373,-0.373 0.513,-0.364 0.391,0.027 0.773,-0.109 1.185,0.116 1.047,0.571 1.582,1.527 1.968,2.553 0.541,1.44 0.252,2.749 -0.947,3.814 z"
     fill="#3fbdf1"
     id="path106" />
  <path
     fill-rule="evenodd"
     clip-rule="evenodd"
     d="m 431.744,380.501 c -0.108,0.217 -0.2,0.402 -0.307,0.617 0.743,0.764 1.05,1.684 0.931,2.75 -0.028,0.253 -0.021,0.471 -0.21,0.708 -0.359,0.45 -0.408,1.106 -1.104,1.344 -0.302,0.103 -0.631,0.188 -0.834,0.084 -0.565,-0.291 -1.214,-0.515 -1.564,-1.096 -0.176,-0.29 -0.338,-0.591 -0.375,-0.973 -0.122,-1.254 0.387,-2.295 1.025,-3.293 0.144,-0.225 0.386,-0.387 0.675,-0.518 0.333,-0.15 0.539,-0.272 0.873,-0.024 0.242,0.182 0.563,0.26 0.89,0.401 z"
     fill="#3fbdf1"
     id="path107" />
  <path
     fill-rule="evenodd"
     clip-rule="evenodd"
     d="m 442.531,368.376 c 0,0.311 -0.02,0.465 0.003,0.612 0.118,0.766 -0.522,1.037 -0.967,1.375 -0.442,0.335 -0.865,-0.157 -1.279,-0.28 -0.386,-0.114 -0.705,-0.485 -1.03,-0.768 -0.549,-0.478 -0.754,-1.612 -0.407,-2.291 0.08,-0.154 -0.005,-0.417 0.362,-0.452 0.219,-0.021 0.426,-0.37 0.602,-0.599 0.462,-0.597 0.866,-0.666 1.36,-0.144 0.323,0.341 0.697,0.62 0.927,1.077 0.267,0.53 0.566,1.011 0.429,1.47 z"
     fill="#3fbdf1"
     id="path108" />
  <path
     fill-rule="evenodd"
     clip-rule="evenodd"
     d="m 430.221,342.659 c 0.489,0.524 1.033,0.978 1.289,1.716 0.318,0.915 0.145,1.414 -0.633,1.947 -0.886,0.608 -1.479,0.503 -2.253,-0.286 -0.105,-0.108 -0.212,-0.213 -0.297,-0.297 -0.128,-0.396 0.166,-0.853 -0.255,-1.163 -0.234,-1.043 0.471,-1.897 1.583,-1.917 0.188,-0.003 0.375,0 0.566,0 z"
     fill="#3fbdf1"
     id="path109" />
  <path
     fill-rule="evenodd"
     clip-rule="evenodd"
     d="m 440.723,331.048 c 0.203,-0.159 0.328,-0.256 0.452,-0.353 -0.145,-0.122 -0.291,-0.245 -0.433,-0.364 0.058,-0.065 0.128,-0.143 0.226,-0.252 -0.256,-0.056 -0.484,-0.106 -0.757,-0.166 0.32,-0.859 1.106,-0.922 1.723,-1.202 0.12,-0.055 0.38,0.104 0.529,0.222 0.604,0.478 1.045,1.09 1.351,1.796 0.04,0.093 0.094,0.261 0.056,0.294 -0.534,0.455 0.17,1.336 -0.529,1.641 -0.137,0.06 -0.445,-0.292 -0.813,-0.318 0.15,0.164 0.298,0.328 0.469,0.515 -0.275,0.182 -0.533,0.371 -0.811,0.527 -0.085,0.048 -0.221,0.016 -0.332,0.004 -0.066,-0.008 -0.187,-0.058 -0.184,-0.074 0.091,-0.617 -0.645,-0.158 -0.727,-0.564 -0.041,-0.2 -0.191,-0.384 -0.21,-0.582 -0.035,-0.371 -0.01,-0.748 -0.01,-1.124 z"
     fill="#3fbdf1"
     id="path110" />
  <path
     fill-rule="evenodd"
     clip-rule="evenodd"
     d="M 442.327,314.497 V 314 h 1.006 c 0.51,0.766 1.209,1.492 0.962,2.647 -0.162,0.01 -0.364,0.023 -0.648,0.04 v -0.932 c -0.181,0.035 -0.32,0.02 -0.371,0.08 -0.085,0.1 -0.094,0.261 -0.17,0.372 -0.141,0.205 -0.218,0.159 -0.407,-0.145 -0.128,-0.205 -0.303,-0.382 -0.479,-0.598 0.232,-0.107 0.385,-0.177 0.549,-0.252 -0.476,-0.235 -0.468,-0.227 -0.076,-0.634 0.068,-0.071 0.03,-0.243 0.048,-0.463 -0.168,0.155 -0.247,0.228 -0.414,0.382 z"
     fill="#3fbdf1"
     id="path111" />
  <path
     d="m 307.703,37.4636 c -0.117,-1.3345 -0.556,-2.6208 -1.28,-3.7476 -0.725,-1.1269 -1.712,-2.0605 -2.878,-2.7204 -5.871,-3.2848 -13.395,3.0954 -11.294,9.4156 0.739,2.1991 2.499,3.7976 4.504,4.8602 3.695,1.9635 8.869,1.848 10.624,-2.5779 l 0.028,-0.0693 c 0,0 0.767,3.8761 4.836,4.0193 0.526,0.0371 1.053,-0.0418 1.544,-0.2311 0.492,-0.1893 0.936,-0.4844 1.301,-0.8643 0.365,-0.38 0.642,-0.8356 0.811,-1.3344 0.169,-0.4989 0.227,-1.029 0.169,-1.5526 3.501,3.6036 4.416,8.9905 2.771,13.6614 0.301,-0.8409 2.31,-0.6884 2.892,-0.4944 2.504,0.8732 3.839,3.8346 3.284,6.3479 -0.522,2.3516 -2.337,4.3382 -4.314,5.7796 -0.169,0.1169 -0.307,0.273 -0.402,0.4549 -0.095,0.1818 -0.145,0.384 -0.145,0.5892 0,0.2053 0.05,0.4075 0.145,0.5893 0.095,0.1818 0.233,0.3379 0.402,0.4548 1.882,1.2102 4.113,1.7626 6.342,1.5708 2.704,-0.2224 5.208,-1.5096 6.963,-3.5784 1.755,-2.0689 2.617,-4.75 2.396,-7.4541 l -0.028,-0.1294 c 1.784,-0.3737 3.392,-1.3343 4.568,-2.7285 1.175,-1.3943 1.849,-3.1419 1.916,-4.9642 0.066,-1.8223 -0.479,-3.6144 -1.55,-5.0906 -1.07,-1.4761 -2.604,-2.5513 -4.357,-3.054 0.526,-0.9505 0.758,-2.036 0.665,-3.1185 -0.127,-1.4686 -0.829,-2.8272 -1.954,-3.7793 -1.125,-0.9522 -2.581,-1.4205 -4.051,-1.3027"
     stroke="#000000"
     stroke-width="4.72"
     stroke-linecap="round"
     stroke-linejoin="round"
     id="path112" />
</svg>
